<svg version="1.1" xmlns="http://www.w3.org/2000/svg" xmlns:xlink="http://www.w3.org/1999/xlink" x="0px" y="0px" viewBox="0 0 60 60" style="enable-background:new 0 0 60 60;" xml:space="preserve">
<style type="text/css">
	.st0{fill:#CFD0D0;}
	.st1{fill:#8FC8FF;}
	.st2{fill:#5897FF;}
	.st3{fill:#2754FF;}
</style>
<g id="Symbol">
	<path class="st1" d="M41.7,24.2c-1.1-0.4-2.3-0.6-3.5-0.6c-1.7,0-3.3,0.4-4.8,1.2c-0.9,0.5-1.7,1.1-2.4,1.8c0,0,0,0,0,0l-7.2,7.2v0   h14.4L31,40.9c1.8,1.8,4.4,3,7.2,3c5.6,0,10.2-4.6,10.2-10.2C48.3,29.3,45.6,25.6,41.7,24.2z"/>
	<path class="st2" d="M23.8,33.7L23.8,33.7l-1.5-5.4c-0.5-1.6-0.8-2.5-0.9-3.6c0-0.3,0-0.6-0.1-0.9c-4.4,1.1-7.7,5.1-7.7,9.9   c0,5.6,4.6,10.2,10.2,10.2c1.7,0,3.3-0.4,4.7-1.2c0.9-0.5,1.7-1.1,2.4-1.8c0,0,7.2-7.2,7.2-7.2H23.8z"/>
	<path class="st3" d="M31.5,13.5c-5.6,0-10.2,4.6-10.2,10.2c0,0.1,0,0.1,0,0.2c0,1.5,0.3,2.4,0.9,4.5l1.5,5.4l7.2-7.2c0,0,0,0,0,0   c0.7-0.7,1.5-1.3,2.4-1.8c1.4-0.8,3-1.2,4.8-1.2c1.2,0,2.4,0.2,3.5,0.6c0-0.2,0-0.4,0-0.5C41.7,18,37.1,13.5,31.5,13.5z"/>
	<g>
		<path class="st2" d="M31,58.9C15,58.9,2.1,45.9,2.1,30S15,1.1,31,1.1s28.9,13,28.9,28.9S46.9,58.9,31,58.9z M31,3.1    C16.1,3.1,4.1,15.2,4.1,30S16.1,56.9,31,56.9S57.9,44.8,57.9,30S45.8,3.1,31,3.1z"/>
	</g>
</g>
</svg>